<mxfile host="app.diagrams.net" modified="2024-01-04T14:22:42.018Z" agent="Mozilla/5.0 (Windows NT 10.0; Win64; x64) AppleWebKit/537.36 (KHTML, like Gecko) Chrome/120.0.0.0 Safari/537.36" etag="itAQxtde4ww5dhRv8vtK" version="22.1.16" type="github">
  <diagram id="C5RBs43oDa-KdzZeNtuy" name="Page-1">
    <mxGraphModel dx="1687" dy="868" grid="1" gridSize="10" guides="1" tooltips="1" connect="1" arrows="1" fold="1" page="1" pageScale="1" pageWidth="1654" pageHeight="2336" math="0" shadow="0">
      <root>
        <mxCell id="WIyWlLk6GJQsqaUBKTNV-0" />
        <mxCell id="WIyWlLk6GJQsqaUBKTNV-1" parent="WIyWlLk6GJQsqaUBKTNV-0" />
        <mxCell id="xDcg4EXe8-0JSBkCGdu8-0" value="" style="strokeWidth=2;html=1;shape=mxgraph.flowchart.start_2;whiteSpace=wrap;" vertex="1" parent="WIyWlLk6GJQsqaUBKTNV-1">
          <mxGeometry x="110" y="45" width="40" height="40" as="geometry" />
        </mxCell>
        <mxCell id="WIyWlLk6GJQsqaUBKTNV-2" value="" style="rounded=0;html=1;jettySize=auto;orthogonalLoop=1;fontSize=11;endArrow=block;endFill=0;endSize=8;strokeWidth=1;shadow=0;labelBackgroundColor=none;edgeStyle=orthogonalEdgeStyle;exitX=0.5;exitY=1;exitDx=0;exitDy=0;exitPerimeter=0;" parent="WIyWlLk6GJQsqaUBKTNV-1" source="xDcg4EXe8-0JSBkCGdu8-0" target="WIyWlLk6GJQsqaUBKTNV-6" edge="1">
          <mxGeometry relative="1" as="geometry">
            <mxPoint x="40" y="120" as="sourcePoint" />
          </mxGeometry>
        </mxCell>
        <mxCell id="WIyWlLk6GJQsqaUBKTNV-4" value="Non" style="rounded=0;html=1;jettySize=auto;orthogonalLoop=1;fontSize=11;endArrow=block;endFill=0;endSize=8;strokeWidth=1;shadow=0;labelBackgroundColor=none;edgeStyle=orthogonalEdgeStyle;" parent="WIyWlLk6GJQsqaUBKTNV-1" source="WIyWlLk6GJQsqaUBKTNV-6" target="WIyWlLk6GJQsqaUBKTNV-10" edge="1">
          <mxGeometry x="-0.8261" y="20" relative="1" as="geometry">
            <mxPoint as="offset" />
          </mxGeometry>
        </mxCell>
        <mxCell id="WIyWlLk6GJQsqaUBKTNV-5" value="Oui" style="edgeStyle=orthogonalEdgeStyle;rounded=0;html=1;jettySize=auto;orthogonalLoop=1;fontSize=11;endArrow=block;endFill=0;endSize=8;strokeWidth=1;shadow=0;labelBackgroundColor=none;" parent="WIyWlLk6GJQsqaUBKTNV-1" source="WIyWlLk6GJQsqaUBKTNV-6" target="WIyWlLk6GJQsqaUBKTNV-7" edge="1">
          <mxGeometry y="10" relative="1" as="geometry">
            <mxPoint as="offset" />
          </mxGeometry>
        </mxCell>
        <mxCell id="WIyWlLk6GJQsqaUBKTNV-6" value="Création d&#39;un projet Gitlab" style="rhombus;whiteSpace=wrap;html=1;shadow=0;fontFamily=Helvetica;fontSize=12;align=center;strokeWidth=1;spacing=6;spacingTop=-4;fillColor=#fff2cc;strokeColor=#d6b656;" parent="WIyWlLk6GJQsqaUBKTNV-1" vertex="1">
          <mxGeometry x="40" y="120" width="180" height="80" as="geometry" />
        </mxCell>
        <mxCell id="WIyWlLk6GJQsqaUBKTNV-7" value="Avez-vous un compte Mantis ?" style="rounded=1;whiteSpace=wrap;html=1;fontSize=12;glass=0;strokeWidth=1;shadow=0;" parent="WIyWlLk6GJQsqaUBKTNV-1" vertex="1">
          <mxGeometry x="300" y="140" width="120" height="40" as="geometry" />
        </mxCell>
        <mxCell id="WIyWlLk6GJQsqaUBKTNV-9" value="Non" style="edgeStyle=orthogonalEdgeStyle;rounded=0;html=1;jettySize=auto;orthogonalLoop=1;fontSize=11;endArrow=block;endFill=0;endSize=8;strokeWidth=1;shadow=0;labelBackgroundColor=none;" parent="WIyWlLk6GJQsqaUBKTNV-1" source="WIyWlLk6GJQsqaUBKTNV-10" edge="1">
          <mxGeometry x="-0.6316" y="20" relative="1" as="geometry">
            <mxPoint as="offset" />
            <mxPoint x="130" y="1040" as="targetPoint" />
          </mxGeometry>
        </mxCell>
        <mxCell id="WIyWlLk6GJQsqaUBKTNV-10" value="Création d&#39;un projet Github" style="rhombus;whiteSpace=wrap;html=1;shadow=0;fontFamily=Helvetica;fontSize=12;align=center;strokeWidth=1;spacing=6;spacingTop=-4;fillColor=#fff2cc;strokeColor=#d6b656;" parent="WIyWlLk6GJQsqaUBKTNV-1" vertex="1">
          <mxGeometry x="35" y="580" width="190" height="80" as="geometry" />
        </mxCell>
        <mxCell id="xDcg4EXe8-0JSBkCGdu8-1" value="Créer un nouveau projet" style="text;html=1;strokeColor=none;fillColor=none;align=center;verticalAlign=middle;whiteSpace=wrap;rounded=0;" vertex="1" parent="WIyWlLk6GJQsqaUBKTNV-1">
          <mxGeometry x="85" y="10" width="90" height="30" as="geometry" />
        </mxCell>
        <mxCell id="xDcg4EXe8-0JSBkCGdu8-2" value="Oui" style="edgeStyle=orthogonalEdgeStyle;rounded=0;html=1;jettySize=auto;orthogonalLoop=1;fontSize=11;endArrow=block;endFill=0;endSize=8;strokeWidth=1;shadow=0;labelBackgroundColor=none;" edge="1" parent="WIyWlLk6GJQsqaUBKTNV-1">
          <mxGeometry y="10" relative="1" as="geometry">
            <mxPoint as="offset" />
            <mxPoint x="420" y="159.86" as="sourcePoint" />
            <mxPoint x="500" y="159.86" as="targetPoint" />
          </mxGeometry>
        </mxCell>
        <mxCell id="xDcg4EXe8-0JSBkCGdu8-14" value="" style="edgeStyle=orthogonalEdgeStyle;rounded=0;orthogonalLoop=1;jettySize=auto;html=1;" edge="1" parent="WIyWlLk6GJQsqaUBKTNV-1" source="xDcg4EXe8-0JSBkCGdu8-4" target="xDcg4EXe8-0JSBkCGdu8-13">
          <mxGeometry relative="1" as="geometry" />
        </mxCell>
        <mxCell id="xDcg4EXe8-0JSBkCGdu8-4" value="Demande de création de projet Git via un ticket Mantis dans le projet &quot;Industrialisation Forge&amp;nbsp;" style="rounded=1;whiteSpace=wrap;html=1;absoluteArcSize=1;arcSize=14;strokeWidth=2;" vertex="1" parent="WIyWlLk6GJQsqaUBKTNV-1">
          <mxGeometry x="500" y="110" width="150" height="100" as="geometry" />
        </mxCell>
        <mxCell id="xDcg4EXe8-0JSBkCGdu8-5" value="Non" style="rounded=0;html=1;jettySize=auto;orthogonalLoop=1;fontSize=11;endArrow=block;endFill=0;endSize=8;strokeWidth=1;shadow=0;labelBackgroundColor=none;edgeStyle=orthogonalEdgeStyle;exitX=0.5;exitY=1;exitDx=0;exitDy=0;entryX=0.5;entryY=0;entryDx=0;entryDy=0;" edge="1" parent="WIyWlLk6GJQsqaUBKTNV-1" source="WIyWlLk6GJQsqaUBKTNV-7" target="xDcg4EXe8-0JSBkCGdu8-6">
          <mxGeometry y="20" relative="1" as="geometry">
            <mxPoint as="offset" />
            <mxPoint x="359.86" y="190" as="sourcePoint" />
            <mxPoint x="360" y="240" as="targetPoint" />
          </mxGeometry>
        </mxCell>
        <mxCell id="xDcg4EXe8-0JSBkCGdu8-6" value="Demande de création de compte Forge via le formulaire adéquat" style="rounded=1;whiteSpace=wrap;html=1;absoluteArcSize=1;arcSize=14;strokeWidth=2;" vertex="1" parent="WIyWlLk6GJQsqaUBKTNV-1">
          <mxGeometry x="293.75" y="240" width="132.5" height="70" as="geometry" />
        </mxCell>
        <mxCell id="xDcg4EXe8-0JSBkCGdu8-8" value="" style="endArrow=classic;html=1;rounded=0;exitX=1;exitY=0.5;exitDx=0;exitDy=0;entryX=0;entryY=0.75;entryDx=0;entryDy=0;" edge="1" parent="WIyWlLk6GJQsqaUBKTNV-1" source="xDcg4EXe8-0JSBkCGdu8-6" target="xDcg4EXe8-0JSBkCGdu8-4">
          <mxGeometry width="50" height="50" relative="1" as="geometry">
            <mxPoint x="420" y="230" as="sourcePoint" />
            <mxPoint x="470" y="180" as="targetPoint" />
            <Array as="points">
              <mxPoint x="460" y="275" />
              <mxPoint x="460" y="185" />
            </Array>
          </mxGeometry>
        </mxCell>
        <mxCell id="xDcg4EXe8-0JSBkCGdu8-18" value="" style="edgeStyle=orthogonalEdgeStyle;rounded=0;orthogonalLoop=1;jettySize=auto;html=1;" edge="1" parent="WIyWlLk6GJQsqaUBKTNV-1" source="xDcg4EXe8-0JSBkCGdu8-13" target="xDcg4EXe8-0JSBkCGdu8-17">
          <mxGeometry relative="1" as="geometry" />
        </mxCell>
        <mxCell id="xDcg4EXe8-0JSBkCGdu8-13" value="Avez-vous besoin d&#39;une chaînte d&#39;intégration continue" style="rounded=1;whiteSpace=wrap;html=1;arcSize=14;strokeWidth=1;" vertex="1" parent="WIyWlLk6GJQsqaUBKTNV-1">
          <mxGeometry x="515" y="325" width="120" height="60" as="geometry" />
        </mxCell>
        <mxCell id="xDcg4EXe8-0JSBkCGdu8-15" style="edgeStyle=orthogonalEdgeStyle;rounded=0;orthogonalLoop=1;jettySize=auto;html=1;entryX=0.5;entryY=0;entryDx=0;entryDy=0;labelBackgroundColor=none;" edge="1" parent="WIyWlLk6GJQsqaUBKTNV-1" source="xDcg4EXe8-0JSBkCGdu8-13" target="WIyWlLk6GJQsqaUBKTNV-10">
          <mxGeometry relative="1" as="geometry" />
        </mxCell>
        <mxCell id="xDcg4EXe8-0JSBkCGdu8-16" value="&lt;font style=&quot;font-size: 10px;&quot;&gt;Non&lt;/font&gt;" style="text;strokeColor=none;align=center;fillColor=none;html=1;verticalAlign=middle;whiteSpace=wrap;rounded=0;" vertex="1" parent="WIyWlLk6GJQsqaUBKTNV-1">
          <mxGeometry x="300" y="330" width="60" height="30" as="geometry" />
        </mxCell>
        <mxCell id="xDcg4EXe8-0JSBkCGdu8-20" style="edgeStyle=orthogonalEdgeStyle;rounded=0;orthogonalLoop=1;jettySize=auto;html=1;entryX=0.5;entryY=0;entryDx=0;entryDy=0;" edge="1" parent="WIyWlLk6GJQsqaUBKTNV-1" source="xDcg4EXe8-0JSBkCGdu8-17" target="WIyWlLk6GJQsqaUBKTNV-10">
          <mxGeometry relative="1" as="geometry" />
        </mxCell>
        <mxCell id="xDcg4EXe8-0JSBkCGdu8-17" value="Demande de création de jobs Jenkins et de projet Sonar via un ticket Mantis dans le projet &quot;Industrialisation Forge&amp;nbsp;" style="whiteSpace=wrap;html=1;rounded=1;arcSize=14;strokeWidth=2;" vertex="1" parent="WIyWlLk6GJQsqaUBKTNV-1">
          <mxGeometry x="470" y="430" width="210" height="90" as="geometry" />
        </mxCell>
        <mxCell id="xDcg4EXe8-0JSBkCGdu8-19" value="&lt;font style=&quot;font-size: 10px;&quot;&gt;Oui&lt;/font&gt;" style="text;strokeColor=none;align=center;fillColor=none;html=1;verticalAlign=middle;whiteSpace=wrap;rounded=0;" vertex="1" parent="WIyWlLk6GJQsqaUBKTNV-1">
          <mxGeometry x="590" y="390" width="30" height="30" as="geometry" />
        </mxCell>
        <mxCell id="xDcg4EXe8-0JSBkCGdu8-21" value="Oui" style="edgeStyle=orthogonalEdgeStyle;rounded=0;html=1;jettySize=auto;orthogonalLoop=1;fontSize=11;endArrow=block;endFill=0;endSize=8;strokeWidth=1;shadow=0;labelBackgroundColor=none;" edge="1" parent="WIyWlLk6GJQsqaUBKTNV-1" target="xDcg4EXe8-0JSBkCGdu8-22">
          <mxGeometry y="10" relative="1" as="geometry">
            <mxPoint as="offset" />
            <mxPoint x="220" y="620" as="sourcePoint" />
          </mxGeometry>
        </mxCell>
        <mxCell id="xDcg4EXe8-0JSBkCGdu8-22" value="Avez-vous un compte Github associé à l&#39;organisation ansforge?" style="rounded=1;whiteSpace=wrap;html=1;fontSize=12;glass=0;strokeWidth=1;shadow=0;" vertex="1" parent="WIyWlLk6GJQsqaUBKTNV-1">
          <mxGeometry x="275" y="595" width="170" height="50" as="geometry" />
        </mxCell>
        <mxCell id="xDcg4EXe8-0JSBkCGdu8-23" value="Oui" style="edgeStyle=orthogonalEdgeStyle;rounded=0;html=1;jettySize=auto;orthogonalLoop=1;fontSize=11;endArrow=block;endFill=0;endSize=8;strokeWidth=1;shadow=0;labelBackgroundColor=none;entryX=-0.022;entryY=0.506;entryDx=0;entryDy=0;entryPerimeter=0;" edge="1" parent="WIyWlLk6GJQsqaUBKTNV-1" target="xDcg4EXe8-0JSBkCGdu8-24">
          <mxGeometry y="10" relative="1" as="geometry">
            <mxPoint as="offset" />
            <mxPoint x="445" y="619.86" as="sourcePoint" />
            <mxPoint x="525" y="619.86" as="targetPoint" />
          </mxGeometry>
        </mxCell>
        <mxCell id="xDcg4EXe8-0JSBkCGdu8-24" value="Demande de création de projet Github via le formulaire adéquat&amp;nbsp;" style="rounded=1;whiteSpace=wrap;html=1;absoluteArcSize=1;arcSize=14;strokeWidth=2;" vertex="1" parent="WIyWlLk6GJQsqaUBKTNV-1">
          <mxGeometry x="500" y="570" width="150" height="100" as="geometry" />
        </mxCell>
        <mxCell id="xDcg4EXe8-0JSBkCGdu8-25" value="Non" style="rounded=0;html=1;jettySize=auto;orthogonalLoop=1;fontSize=11;endArrow=block;endFill=0;endSize=8;strokeWidth=1;shadow=0;labelBackgroundColor=none;edgeStyle=orthogonalEdgeStyle;exitX=0.5;exitY=1;exitDx=0;exitDy=0;entryX=0.5;entryY=0;entryDx=0;entryDy=0;" edge="1" parent="WIyWlLk6GJQsqaUBKTNV-1" source="xDcg4EXe8-0JSBkCGdu8-22" target="xDcg4EXe8-0JSBkCGdu8-26">
          <mxGeometry y="20" relative="1" as="geometry">
            <mxPoint as="offset" />
            <mxPoint x="359.86" y="650" as="sourcePoint" />
            <mxPoint x="360" y="700" as="targetPoint" />
          </mxGeometry>
        </mxCell>
        <mxCell id="xDcg4EXe8-0JSBkCGdu8-26" value="&lt;p style=&quot;margin: 0cm; vertical-align: baseline;&quot; class=&quot;paragraph&quot;&gt;Il faut d’abord créer un&lt;br&gt;compte Github avec son mail professionnel puis renseigner le formulaire adéquat&lt;span style=&quot;font-size: 10pt; font-family: Arial, sans-serif;&quot;&gt;&lt;/span&gt;&lt;/p&gt;" style="rounded=1;whiteSpace=wrap;html=1;absoluteArcSize=1;arcSize=14;strokeWidth=2;" vertex="1" parent="WIyWlLk6GJQsqaUBKTNV-1">
          <mxGeometry x="280" y="690" width="160" height="80" as="geometry" />
        </mxCell>
        <mxCell id="xDcg4EXe8-0JSBkCGdu8-27" value="" style="endArrow=classic;html=1;rounded=0;exitX=1;exitY=0.5;exitDx=0;exitDy=0;entryX=0;entryY=0.75;entryDx=0;entryDy=0;" edge="1" parent="WIyWlLk6GJQsqaUBKTNV-1" source="xDcg4EXe8-0JSBkCGdu8-26" target="xDcg4EXe8-0JSBkCGdu8-24">
          <mxGeometry width="50" height="50" relative="1" as="geometry">
            <mxPoint x="420" y="690" as="sourcePoint" />
            <mxPoint x="470" y="640" as="targetPoint" />
            <Array as="points">
              <mxPoint x="460" y="730" />
              <mxPoint x="460" y="645" />
            </Array>
          </mxGeometry>
        </mxCell>
        <mxCell id="xDcg4EXe8-0JSBkCGdu8-29" value="" style="endArrow=classic;html=1;rounded=0;exitX=0;exitY=0.5;exitDx=0;exitDy=0;" edge="1" parent="WIyWlLk6GJQsqaUBKTNV-1" source="xDcg4EXe8-0JSBkCGdu8-17">
          <mxGeometry width="50" height="50" relative="1" as="geometry">
            <mxPoint x="490" y="500" as="sourcePoint" />
            <mxPoint x="250" y="475" as="targetPoint" />
          </mxGeometry>
        </mxCell>
        <mxCell id="xDcg4EXe8-0JSBkCGdu8-30" value="" style="endArrow=classic;html=1;rounded=0;exitX=0;exitY=0.5;exitDx=0;exitDy=0;" edge="1" parent="WIyWlLk6GJQsqaUBKTNV-1" source="xDcg4EXe8-0JSBkCGdu8-13">
          <mxGeometry width="50" height="50" relative="1" as="geometry">
            <mxPoint x="480" y="485" as="sourcePoint" />
            <mxPoint x="270" y="355" as="targetPoint" />
          </mxGeometry>
        </mxCell>
        <mxCell id="xDcg4EXe8-0JSBkCGdu8-31" value="" style="edgeStyle=orthogonalEdgeStyle;rounded=0;orthogonalLoop=1;jettySize=auto;html=1;" edge="1" parent="WIyWlLk6GJQsqaUBKTNV-1" target="xDcg4EXe8-0JSBkCGdu8-32">
          <mxGeometry relative="1" as="geometry">
            <mxPoint x="575" y="670" as="sourcePoint" />
          </mxGeometry>
        </mxCell>
        <mxCell id="xDcg4EXe8-0JSBkCGdu8-32" value="Avez-vous besoin d&#39;une chaînte d&#39;intégration continue" style="rounded=1;whiteSpace=wrap;html=1;arcSize=14;strokeWidth=1;" vertex="1" parent="WIyWlLk6GJQsqaUBKTNV-1">
          <mxGeometry x="515" y="785" width="120" height="60" as="geometry" />
        </mxCell>
        <mxCell id="xDcg4EXe8-0JSBkCGdu8-33" style="edgeStyle=orthogonalEdgeStyle;rounded=0;orthogonalLoop=1;jettySize=auto;html=1;entryX=0.5;entryY=0;entryDx=0;entryDy=0;labelBackgroundColor=none;" edge="1" parent="WIyWlLk6GJQsqaUBKTNV-1" source="xDcg4EXe8-0JSBkCGdu8-32">
          <mxGeometry relative="1" as="geometry">
            <mxPoint x="130" y="1040" as="targetPoint" />
          </mxGeometry>
        </mxCell>
        <mxCell id="xDcg4EXe8-0JSBkCGdu8-34" style="edgeStyle=orthogonalEdgeStyle;rounded=0;orthogonalLoop=1;jettySize=auto;html=1;entryX=0.5;entryY=0;entryDx=0;entryDy=0;" edge="1" parent="WIyWlLk6GJQsqaUBKTNV-1" source="xDcg4EXe8-0JSBkCGdu8-35">
          <mxGeometry relative="1" as="geometry">
            <mxPoint x="130" y="1040" as="targetPoint" />
          </mxGeometry>
        </mxCell>
        <mxCell id="xDcg4EXe8-0JSBkCGdu8-35" value="Demande de création de jobs Jenkins et de projet Sonar via un ticket Mantis dans le projet &quot;Industrialisation Forge&amp;nbsp;" style="whiteSpace=wrap;html=1;rounded=1;arcSize=14;strokeWidth=2;" vertex="1" parent="WIyWlLk6GJQsqaUBKTNV-1">
          <mxGeometry x="470" y="890" width="210" height="90" as="geometry" />
        </mxCell>
        <mxCell id="xDcg4EXe8-0JSBkCGdu8-36" value="&lt;font style=&quot;font-size: 10px;&quot;&gt;Oui&lt;/font&gt;" style="text;strokeColor=none;align=center;fillColor=none;html=1;verticalAlign=middle;whiteSpace=wrap;rounded=0;" vertex="1" parent="WIyWlLk6GJQsqaUBKTNV-1">
          <mxGeometry x="560" y="850" width="60" height="30" as="geometry" />
        </mxCell>
        <mxCell id="xDcg4EXe8-0JSBkCGdu8-37" value="" style="endArrow=classic;html=1;rounded=0;exitX=0;exitY=0.5;exitDx=0;exitDy=0;" edge="1" parent="WIyWlLk6GJQsqaUBKTNV-1" source="xDcg4EXe8-0JSBkCGdu8-35">
          <mxGeometry width="50" height="50" relative="1" as="geometry">
            <mxPoint x="490" y="960" as="sourcePoint" />
            <mxPoint x="250" y="935" as="targetPoint" />
          </mxGeometry>
        </mxCell>
        <mxCell id="xDcg4EXe8-0JSBkCGdu8-38" value="" style="endArrow=classic;html=1;rounded=0;exitX=0;exitY=0.5;exitDx=0;exitDy=0;" edge="1" parent="WIyWlLk6GJQsqaUBKTNV-1" source="xDcg4EXe8-0JSBkCGdu8-32">
          <mxGeometry width="50" height="50" relative="1" as="geometry">
            <mxPoint x="480" y="945" as="sourcePoint" />
            <mxPoint x="270" y="815" as="targetPoint" />
          </mxGeometry>
        </mxCell>
        <mxCell id="xDcg4EXe8-0JSBkCGdu8-39" value="" style="edgeStyle=orthogonalEdgeStyle;rounded=0;orthogonalLoop=1;jettySize=auto;html=1;" edge="1" parent="WIyWlLk6GJQsqaUBKTNV-1">
          <mxGeometry relative="1" as="geometry">
            <mxPoint x="574.83" y="845" as="sourcePoint" />
            <mxPoint x="574.83" y="890" as="targetPoint" />
          </mxGeometry>
        </mxCell>
        <mxCell id="xDcg4EXe8-0JSBkCGdu8-51" value="" style="edgeStyle=orthogonalEdgeStyle;rounded=0;orthogonalLoop=1;jettySize=auto;html=1;" edge="1" parent="WIyWlLk6GJQsqaUBKTNV-1" source="xDcg4EXe8-0JSBkCGdu8-40" target="xDcg4EXe8-0JSBkCGdu8-50">
          <mxGeometry relative="1" as="geometry" />
        </mxCell>
        <mxCell id="xDcg4EXe8-0JSBkCGdu8-40" value="Création d&#39;un projet Mantis" style="rhombus;whiteSpace=wrap;html=1;shadow=0;fontFamily=Helvetica;fontSize=12;align=center;strokeWidth=1;spacing=6;spacingTop=-4;fillColor=#fff2cc;strokeColor=#d6b656;" vertex="1" parent="WIyWlLk6GJQsqaUBKTNV-1">
          <mxGeometry x="35" y="1040" width="190" height="80" as="geometry" />
        </mxCell>
        <mxCell id="xDcg4EXe8-0JSBkCGdu8-41" value="Oui" style="edgeStyle=orthogonalEdgeStyle;rounded=0;html=1;jettySize=auto;orthogonalLoop=1;fontSize=11;endArrow=block;endFill=0;endSize=8;strokeWidth=1;shadow=0;labelBackgroundColor=none;" edge="1" parent="WIyWlLk6GJQsqaUBKTNV-1" target="xDcg4EXe8-0JSBkCGdu8-42">
          <mxGeometry y="10" relative="1" as="geometry">
            <mxPoint as="offset" />
            <mxPoint x="225" y="1080" as="sourcePoint" />
          </mxGeometry>
        </mxCell>
        <mxCell id="xDcg4EXe8-0JSBkCGdu8-42" value="Avez-vous un compte Mantis ?" style="rounded=1;whiteSpace=wrap;html=1;fontSize=12;glass=0;strokeWidth=1;shadow=0;" vertex="1" parent="WIyWlLk6GJQsqaUBKTNV-1">
          <mxGeometry x="305" y="1060" width="120" height="40" as="geometry" />
        </mxCell>
        <mxCell id="xDcg4EXe8-0JSBkCGdu8-43" value="Oui" style="edgeStyle=orthogonalEdgeStyle;rounded=0;html=1;jettySize=auto;orthogonalLoop=1;fontSize=11;endArrow=block;endFill=0;endSize=8;strokeWidth=1;shadow=0;labelBackgroundColor=none;" edge="1" parent="WIyWlLk6GJQsqaUBKTNV-1">
          <mxGeometry y="10" relative="1" as="geometry">
            <mxPoint as="offset" />
            <mxPoint x="425" y="1079.8600000000001" as="sourcePoint" />
            <mxPoint x="505" y="1079.8600000000001" as="targetPoint" />
          </mxGeometry>
        </mxCell>
        <mxCell id="xDcg4EXe8-0JSBkCGdu8-44" value="" style="edgeStyle=orthogonalEdgeStyle;rounded=0;orthogonalLoop=1;jettySize=auto;html=1;exitX=0.5;exitY=1;exitDx=0;exitDy=0;" edge="1" parent="WIyWlLk6GJQsqaUBKTNV-1">
          <mxGeometry relative="1" as="geometry">
            <mxPoint x="130" y="1250" as="targetPoint" />
            <mxPoint x="580" y="1100" as="sourcePoint" />
            <Array as="points">
              <mxPoint x="580" y="1250" />
            </Array>
          </mxGeometry>
        </mxCell>
        <mxCell id="xDcg4EXe8-0JSBkCGdu8-45" value="Demande de création de projet Mantis via un ticket Mantis dans le projet &quot;Industrialisation Forge&amp;nbsp;" style="rounded=1;whiteSpace=wrap;html=1;absoluteArcSize=1;arcSize=14;strokeWidth=2;" vertex="1" parent="WIyWlLk6GJQsqaUBKTNV-1">
          <mxGeometry x="505" y="1030" width="150" height="100" as="geometry" />
        </mxCell>
        <mxCell id="xDcg4EXe8-0JSBkCGdu8-46" value="Non" style="rounded=0;html=1;jettySize=auto;orthogonalLoop=1;fontSize=11;endArrow=block;endFill=0;endSize=8;strokeWidth=1;shadow=0;labelBackgroundColor=none;edgeStyle=orthogonalEdgeStyle;exitX=0.5;exitY=1;exitDx=0;exitDy=0;entryX=0.5;entryY=0;entryDx=0;entryDy=0;" edge="1" parent="WIyWlLk6GJQsqaUBKTNV-1" source="xDcg4EXe8-0JSBkCGdu8-42" target="xDcg4EXe8-0JSBkCGdu8-47">
          <mxGeometry y="20" relative="1" as="geometry">
            <mxPoint as="offset" />
            <mxPoint x="364.86" y="1110" as="sourcePoint" />
            <mxPoint x="365" y="1160" as="targetPoint" />
          </mxGeometry>
        </mxCell>
        <mxCell id="xDcg4EXe8-0JSBkCGdu8-47" value="Demande de création de compte Forge via le formulaire adéquat" style="rounded=1;whiteSpace=wrap;html=1;absoluteArcSize=1;arcSize=14;strokeWidth=2;" vertex="1" parent="WIyWlLk6GJQsqaUBKTNV-1">
          <mxGeometry x="298.75" y="1160" width="132.5" height="70" as="geometry" />
        </mxCell>
        <mxCell id="xDcg4EXe8-0JSBkCGdu8-48" value="" style="endArrow=classic;html=1;rounded=0;exitX=1;exitY=0.5;exitDx=0;exitDy=0;entryX=0;entryY=0.75;entryDx=0;entryDy=0;" edge="1" parent="WIyWlLk6GJQsqaUBKTNV-1" source="xDcg4EXe8-0JSBkCGdu8-47" target="xDcg4EXe8-0JSBkCGdu8-45">
          <mxGeometry width="50" height="50" relative="1" as="geometry">
            <mxPoint x="425" y="1150" as="sourcePoint" />
            <mxPoint x="475" y="1100" as="targetPoint" />
            <Array as="points">
              <mxPoint x="465" y="1195" />
              <mxPoint x="465" y="1105" />
            </Array>
          </mxGeometry>
        </mxCell>
        <mxCell id="xDcg4EXe8-0JSBkCGdu8-56" value="" style="edgeStyle=orthogonalEdgeStyle;rounded=0;orthogonalLoop=1;jettySize=auto;html=1;" edge="1" parent="WIyWlLk6GJQsqaUBKTNV-1" source="xDcg4EXe8-0JSBkCGdu8-50" target="xDcg4EXe8-0JSBkCGdu8-55">
          <mxGeometry relative="1" as="geometry" />
        </mxCell>
        <mxCell id="xDcg4EXe8-0JSBkCGdu8-50" value="Création d&#39;un projet Jira" style="rhombus;whiteSpace=wrap;html=1;shadow=0;fontFamily=Helvetica;fontSize=12;align=center;strokeWidth=1;spacing=6;spacingTop=-4;fillColor=#fff2cc;strokeColor=#d6b656;" vertex="1" parent="WIyWlLk6GJQsqaUBKTNV-1">
          <mxGeometry x="35" y="1270" width="190" height="80" as="geometry" />
        </mxCell>
        <mxCell id="xDcg4EXe8-0JSBkCGdu8-52" value="Oui" style="edgeStyle=orthogonalEdgeStyle;rounded=0;html=1;jettySize=auto;orthogonalLoop=1;fontSize=11;endArrow=block;endFill=0;endSize=8;strokeWidth=1;shadow=0;labelBackgroundColor=none;exitX=0.969;exitY=0.5;exitDx=0;exitDy=0;exitPerimeter=0;entryX=0;entryY=0.5;entryDx=0;entryDy=0;" edge="1" parent="WIyWlLk6GJQsqaUBKTNV-1" source="xDcg4EXe8-0JSBkCGdu8-50" target="xDcg4EXe8-0JSBkCGdu8-54">
          <mxGeometry y="10" relative="1" as="geometry">
            <mxPoint as="offset" />
            <mxPoint x="235" y="1310" as="sourcePoint" />
            <mxPoint x="315" y="1310" as="targetPoint" />
          </mxGeometry>
        </mxCell>
        <mxCell id="xDcg4EXe8-0JSBkCGdu8-53" value="" style="edgeStyle=orthogonalEdgeStyle;rounded=0;orthogonalLoop=1;jettySize=auto;html=1;exitX=0.461;exitY=1.028;exitDx=0;exitDy=0;exitPerimeter=0;" edge="1" parent="WIyWlLk6GJQsqaUBKTNV-1" source="xDcg4EXe8-0JSBkCGdu8-54">
          <mxGeometry relative="1" as="geometry">
            <mxPoint x="133" y="1391" as="targetPoint" />
            <mxPoint x="583" y="1241" as="sourcePoint" />
            <Array as="points">
              <mxPoint x="583" y="1342" />
              <mxPoint x="583" y="1391" />
            </Array>
          </mxGeometry>
        </mxCell>
        <mxCell id="xDcg4EXe8-0JSBkCGdu8-54" value="Demande de création de projet Jira via le formulaire adéquat&amp;nbsp;" style="rounded=1;whiteSpace=wrap;html=1;absoluteArcSize=1;arcSize=14;strokeWidth=2;" vertex="1" parent="WIyWlLk6GJQsqaUBKTNV-1">
          <mxGeometry x="515" y="1280" width="150" height="60" as="geometry" />
        </mxCell>
        <mxCell id="xDcg4EXe8-0JSBkCGdu8-55" value="Création d&#39;un projet Confluence" style="rhombus;whiteSpace=wrap;html=1;shadow=0;fontFamily=Helvetica;fontSize=12;align=center;strokeWidth=1;spacing=6;spacingTop=-4;fillColor=#fff2cc;strokeColor=#d6b656;" vertex="1" parent="WIyWlLk6GJQsqaUBKTNV-1">
          <mxGeometry x="35" y="1420" width="190" height="80" as="geometry" />
        </mxCell>
        <mxCell id="xDcg4EXe8-0JSBkCGdu8-57" value="Oui" style="edgeStyle=orthogonalEdgeStyle;rounded=0;html=1;jettySize=auto;orthogonalLoop=1;fontSize=11;endArrow=block;endFill=0;endSize=8;strokeWidth=1;shadow=0;labelBackgroundColor=none;entryX=0;entryY=0.5;entryDx=0;entryDy=0;" edge="1" parent="WIyWlLk6GJQsqaUBKTNV-1" target="xDcg4EXe8-0JSBkCGdu8-59">
          <mxGeometry x="-0.0964" y="10" relative="1" as="geometry">
            <mxPoint as="offset" />
            <mxPoint x="226" y="1460" as="sourcePoint" />
            <mxPoint x="322" y="1460" as="targetPoint" />
          </mxGeometry>
        </mxCell>
        <mxCell id="xDcg4EXe8-0JSBkCGdu8-58" value="" style="edgeStyle=orthogonalEdgeStyle;rounded=0;orthogonalLoop=1;jettySize=auto;html=1;exitX=0.461;exitY=1.028;exitDx=0;exitDy=0;exitPerimeter=0;" edge="1" parent="WIyWlLk6GJQsqaUBKTNV-1" source="xDcg4EXe8-0JSBkCGdu8-59">
          <mxGeometry relative="1" as="geometry">
            <mxPoint x="140" y="1541" as="targetPoint" />
            <mxPoint x="590" y="1391" as="sourcePoint" />
            <Array as="points">
              <mxPoint x="590" y="1492" />
              <mxPoint x="590" y="1541" />
            </Array>
          </mxGeometry>
        </mxCell>
        <mxCell id="xDcg4EXe8-0JSBkCGdu8-59" value="Demande de création de projet Confluence via le formulaire adéquat&amp;nbsp;" style="rounded=1;whiteSpace=wrap;html=1;absoluteArcSize=1;arcSize=14;strokeWidth=2;" vertex="1" parent="WIyWlLk6GJQsqaUBKTNV-1">
          <mxGeometry x="522" y="1430" width="150" height="60" as="geometry" />
        </mxCell>
      </root>
    </mxGraphModel>
  </diagram>
</mxfile>
